<svg width="43" height="44" viewBox="0 0 43 44" fill="none" xmlns="http://www.w3.org/2000/svg">
<path d="M7.16653 -2.28882e-05C7.75163 4.8195e-05 8.31637 0.197881 8.75361 0.555951C9.19085 0.914021 9.47019 1.40742 9.53865 1.94258L9.55537 2.19998V4.54958L40.7799 6.60658C41.3937 6.64661 41.967 6.90319 42.3804 7.32286C42.7938 7.74254 43.0155 8.29293 42.9992 8.85938L42.9753 9.11018L40.5864 24.5102C40.5121 24.9924 40.266 25.4383 39.8869 25.7779C39.5077 26.1176 39.0169 26.3317 38.4914 26.3868L38.2215 26.4H9.55537V30.8H33.4438C34.8433 30.8 36.2121 31.1775 37.3814 31.8857C38.5506 32.5939 39.4691 33.6019 40.0236 34.7853C40.578 35.9687 40.744 37.2757 40.5012 38.545C40.2584 39.8143 39.6174 40.9904 38.6573 41.9281C37.6971 42.8657 36.4599 43.524 35.0982 43.8216C33.7366 44.1192 32.3101 44.0432 30.9948 43.6028C29.6796 43.1624 28.5331 42.3771 27.6969 41.3436C26.8607 40.3101 26.3713 39.0738 26.2892 37.7872L26.2773 37.4L26.2892 37.0128C26.3322 36.3777 26.4644 35.7734 26.6858 35.2H13.9246C14.2655 36.0906 14.395 37.0383 14.3041 37.9789C14.2133 38.9196 13.9044 39.8314 13.3981 40.6526C12.8919 41.4739 12.2002 42.1856 11.3697 42.7396C10.5393 43.2935 9.58938 43.6769 8.58423 43.8639C7.57908 44.0508 6.54208 44.0369 5.54326 43.8231C4.54445 43.6093 3.6071 43.2005 2.7945 42.6245C1.98191 42.0485 1.31301 41.3186 0.832976 40.4841C0.352945 39.6495 0.0729642 38.7299 0.0119445 37.7872L0 37.4L0.0119445 37.0128C0.0939928 35.7156 0.589999 34.4695 1.43779 33.4309C2.28558 32.3922 3.44742 31.6071 4.77768 31.174V4.39998H2.38884C1.80374 4.39991 1.239 4.20207 0.801762 3.844C0.364521 3.48593 0.0851793 2.99253 0.0167218 2.45738L0 2.19998C7.71848e-05 1.66112 0.214891 1.14104 0.603697 0.738359C0.992503 0.335682 1.52826 0.0784229 2.10935 0.015377L2.38884 -2.28882e-05H7.16653ZM7.16653 35.2C6.53297 35.2 5.92536 35.4318 5.47736 35.8443C5.02937 36.2569 4.77768 36.8165 4.77768 37.4C4.77768 37.9835 5.02937 38.543 5.47736 38.9556C5.92536 39.3682 6.53297 39.6 7.16653 39.6C7.80009 39.6 8.4077 39.3682 8.85569 38.9556C9.30369 38.543 9.55537 37.9835 9.55537 37.4C9.55537 36.8165 9.30369 36.2569 8.85569 35.8443C8.4077 35.4318 7.80009 35.2 7.16653 35.2ZM33.4438 35.2C32.8102 35.2 32.2026 35.4318 31.7546 35.8443C31.3066 36.2569 31.055 36.8165 31.055 37.4C31.055 37.9835 31.3066 38.543 31.7546 38.9556C32.2026 39.3682 32.8102 39.6 33.4438 39.6C34.0774 39.6 34.685 39.3682 35.133 38.9556C35.581 38.543 35.8326 37.9835 35.8326 37.4C35.8326 36.8165 35.581 36.2569 35.133 35.8443C34.685 35.4318 34.0774 35.2 33.4438 35.2Z" fill="#F5C900"/>
</svg>
