<?xml version="1.0" encoding="UTF-8" standalone="no"?><!DOCTYPE svg PUBLIC "-//W3C//DTD SVG 1.1//EN" "http://www.w3.org/Graphics/SVG/1.1/DTD/svg11.dtd"><svg width="100%" height="100%" viewBox="0 0 452 452" version="1.1" xmlns="http://www.w3.org/2000/svg" xmlns:xlink="http://www.w3.org/1999/xlink" xml:space="preserve" xmlns:serif="http://www.serif.com/" style="fill-rule:evenodd;clip-rule:evenodd;stroke-linejoin:round;stroke-miterlimit:2;"><path d="M108.839,0c60.07,0 108.839,48.769 108.839,108.839c0,60.07 -48.769,108.839 -108.839,108.839c-60.07,0 -108.839,-48.769 -108.839,-108.839c0,-60.07 48.769,-108.839 108.839,-108.839Zm0,20.833c-48.572,0 -88.006,39.434 -88.006,88.006c0,48.572 39.434,88.006 88.006,88.006c48.572,0 88.006,-39.434 88.006,-88.006c0,-48.572 -39.434,-88.006 -88.006,-88.006Z" style="fill:#fff;"/><path d="M342.869,0c60.07,0 108.839,48.769 108.839,108.839c0,60.07 -48.769,108.839 -108.839,108.839c-60.07,0 -108.839,-48.769 -108.839,-108.839c0,-60.07 48.769,-108.839 108.839,-108.839Zm0,20.833c-48.572,0 -88.006,39.434 -88.006,88.006c0,48.572 39.434,88.006 88.006,88.006c48.572,0 88.006,-39.434 88.006,-88.006c0,-48.572 -39.434,-88.006 -88.006,-88.006Z" style="fill:#fff;"/><path d="M342.869,234.226c60.07,0 108.839,48.769 108.839,108.839c0,60.07 -48.769,108.839 -108.839,108.839c-60.07,0 -108.839,-48.769 -108.839,-108.839c0,-60.07 48.769,-108.839 108.839,-108.839Zm0,20.833c-48.572,0 -88.006,39.434 -88.006,88.006c0,48.572 39.434,88.006 88.006,88.006c48.572,0 88.006,-39.434 88.006,-88.006c0,-48.572 -39.434,-88.006 -88.006,-88.006Z" style="fill:#fff;"/><path d="M108.839,234.226c60.07,0 108.839,48.769 108.839,108.839c0,60.07 -48.769,108.839 -108.839,108.839c-60.07,0 -108.839,-48.769 -108.839,-108.839c0,-60.07 48.769,-108.839 108.839,-108.839Zm0,20.833c-48.572,0 -88.006,39.434 -88.006,88.006c0,48.572 39.434,88.006 88.006,88.006c48.572,0 88.006,-39.434 88.006,-88.006c0,-48.572 -39.434,-88.006 -88.006,-88.006Z" style="fill:#fff;"/></svg>