<?xml version="1.0" encoding="UTF-8" standalone="no"?><!DOCTYPE svg PUBLIC "-//W3C//DTD SVG 1.1//EN" "http://www.w3.org/Graphics/SVG/1.1/DTD/svg11.dtd"><svg width="100%" height="100%" viewBox="0 0 1056 491" version="1.1" xmlns="http://www.w3.org/2000/svg" xmlns:xlink="http://www.w3.org/1999/xlink" xml:space="preserve" xmlns:serif="http://www.serif.com/" style="fill-rule:evenodd;clip-rule:evenodd;stroke-linejoin:round;stroke-miterlimit:2;"><g><g transform="matrix(166.666667,0,0,166.666667,971.140828,120.5)"></g><text x="473.141px" y="120.5px" style="font-family:'Satoshi-Medium', 'Satoshi';font-weight:500;font-size:166.667px;fill:#fff;">Mu<tspan x="709.307px " y="120.5px ">s</tspan>eo</text><g transform="matrix(166.666667,0,0,166.666667,1061.474161,287.533399)"></g><text x="473.141px" y="287.533px" style="font-family:'Satoshi-Medium', 'Satoshi';font-weight:500;font-size:166.667px;fill:#fff;">Hor<tspan x="748.307px " y="287.533px ">a</tspan>cio</text><g transform="matrix(166.666667,0,0,166.666667,985.807494,452.087469)"></g><text x="473.141px" y="452.087px" style="font-family:'Satoshi-Medium', 'Satoshi';font-weight:500;font-size:166.667px;fill:#fff;">P<tspan x="573.974px " y="452.087px ">a</tspan>gani</text><g><path d="M108.839,1.831c60.07,0 108.839,48.769 108.839,108.839c0,60.07 -48.769,108.839 -108.839,108.839c-60.07,0 -108.839,-48.769 -108.839,-108.839c0,-60.07 48.769,-108.839 108.839,-108.839Zm0,20.833c-48.572,0 -88.006,39.434 -88.006,88.006c0,48.572 39.434,88.006 88.006,88.006c48.572,0 88.006,-39.434 88.006,-88.006c0,-48.572 -39.434,-88.006 -88.006,-88.006Z" style="fill:#fff;"/><path d="M342.869,1.831c60.07,0 108.839,48.769 108.839,108.839c0,60.07 -48.769,108.839 -108.839,108.839c-60.07,0 -108.839,-48.769 -108.839,-108.839c0,-60.07 48.769,-108.839 108.839,-108.839Zm0,20.833c-48.572,0 -88.006,39.434 -88.006,88.006c0,48.572 39.434,88.006 88.006,88.006c48.572,0 88.006,-39.434 88.006,-88.006c0,-48.572 -39.434,-88.006 -88.006,-88.006Z" style="fill:#fff;"/><path d="M342.869,236.058c60.07,0 108.839,48.769 108.839,108.839c0,60.07 -48.769,108.839 -108.839,108.839c-60.07,0 -108.839,-48.769 -108.839,-108.839c0,-60.07 48.769,-108.839 108.839,-108.839Zm0,20.833c-48.572,0 -88.006,39.434 -88.006,88.006c0,48.572 39.434,88.006 88.006,88.006c48.572,0 88.006,-39.434 88.006,-88.006c0,-48.572 -39.434,-88.006 -88.006,-88.006Z" style="fill:#fff;"/><path d="M108.839,236.058c60.07,0 108.839,48.769 108.839,108.839c0,60.07 -48.769,108.839 -108.839,108.839c-60.07,0 -108.839,-48.769 -108.839,-108.839c0,-60.07 48.769,-108.839 108.839,-108.839Zm0,20.833c-48.572,0 -88.006,39.434 -88.006,88.006c0,48.572 39.434,88.006 88.006,88.006c48.572,0 88.006,-39.434 88.006,-88.006c0,-48.572 -39.434,-88.006 -88.006,-88.006Z" style="fill:#fff;"/></g></g></svg>