<svg width="32" height="42" viewBox="0 0 32 42" fill="none" xmlns="http://www.w3.org/2000/svg">
<path d="M3 39V35C3 32.8783 3.91309 30.8434 5.53841 29.3431C7.16372 27.8429 9.36812 27 11.6667 27H20.3333C22.6319 27 24.8363 27.8429 26.4616 29.3431C28.0869 30.8434 29 32.8783 29 35V39M7.33333 11C7.33333 13.1217 8.24643 15.1566 9.87174 16.6569C11.4971 18.1571 13.7015 19 16 19C18.2985 19 20.5029 18.1571 22.1283 16.6569C23.7536 15.1566 24.6667 13.1217 24.6667 11C24.6667 8.87827 23.7536 6.84344 22.1283 5.34315C20.5029 3.84285 18.2985 3 16 3C13.7015 3 11.4971 3.84285 9.87174 5.34315C8.24643 6.84344 7.33333 8.87827 7.33333 11Z" stroke="#F5C900" stroke-width="6" stroke-linecap="round" stroke-linejoin="round"/>
</svg>
